<?xml version="1.0" ?><svg id="Layer_1" style="enable-background:new 0 0 512 512;" version="1.1" viewBox="0 0 512 512" xml:space="preserve" xmlns="http://www.w3.org/2000/svg" xmlns:xlink="http://www.w3.org/1999/xlink"><style type="text/css">
	.st0{fill:#1EF6F6;}
	.st1{fill:#FDDD7B;}
	.st2{fill:#EAF3F2;}
	.st3{fill:#D4FF93;}
	.st4{fill:#FD535F;}
	.st5{stroke:#000000;stroke-width:2;stroke-linecap:round;stroke-linejoin:round;stroke-miterlimit:10;}
	.st6{fill:none;stroke:#000000;stroke-width:2;stroke-linecap:round;stroke-linejoin:round;stroke-miterlimit:10;}
	.st7{fill:#1EF6F6;stroke:#000000;stroke-width:2;stroke-linecap:round;stroke-linejoin:round;stroke-miterlimit:10;}
</style><g><g><polyline class="st2" points="417.4,177.01 417.4,48.68 8.73,48.68 8.73,335 94.6,335   "/><path d="M94.6,342.72H8.73C4.46,342.72,1,339.27,1,335V48.68c0-4.27,3.46-7.73,7.73-7.73H417.4c4.27,0,7.73,3.46,7.73,7.73v128.33    c0,4.27-3.46,7.73-7.73,7.73s-7.73-3.46-7.73-7.73V56.41H16.46v270.86H94.6c4.27,0,7.73,3.46,7.73,7.73S98.87,342.72,94.6,342.72z    "/></g><g><polyline class="st1" points="376.69,177.01 376.69,92.55 49.44,92.55 49.44,291.13 94.6,291.13   "/><path d="M94.6,298.86H49.44c-4.27,0-7.73-3.46-7.73-7.73V92.55c0-4.27,3.46-7.73,7.73-7.73h327.24c4.27,0,7.73,3.46,7.73,7.73    v84.46c0,4.27-3.46,7.73-7.73,7.73s-7.73-3.46-7.73-7.73v-76.74H57.17V283.4H94.6c4.27,0,7.73,3.46,7.73,7.73    S98.87,298.86,94.6,298.86z"/></g><g><rect class="st3" height="286.31" width="408.67" x="94.6" y="177.01"/><path d="M503.27,471.05H94.6c-4.27,0-7.73-3.46-7.73-7.73V177.01c0-4.27,3.46-7.73,7.73-7.73h408.67c4.27,0,7.73,3.46,7.73,7.73    v286.31C511,467.59,507.54,471.05,503.27,471.05z M102.33,455.59h393.22V184.74H102.33V455.59z"/></g><g><rect class="st2" height="198.58" width="327.24" x="135.31" y="220.87"/><path d="M462.56,427.18H135.31c-4.27,0-7.73-3.46-7.73-7.73V220.88c0-4.27,3.46-7.73,7.73-7.73h327.25c4.27,0,7.73,3.46,7.73,7.73    v198.58C470.29,423.72,466.83,427.18,462.56,427.18z M143.04,411.73h311.79V228.6H143.04V411.73z"/></g><g><polygon class="st0" points="325.33,261.16 273.02,355.29 228.89,291.13 135.31,419.46 462.56,419.46   "/><path d="M462.56,427.18H135.31c-2.91,0-5.57-1.63-6.89-4.23c-1.32-2.59-1.07-5.7,0.65-8.05l93.57-128.32    c1.48-2.02,3.81-3.03,6.35-3.18c2.51,0.04,4.84,1.28,6.26,3.35l37.07,53.89l46.26-83.23c1.22-2.2,3.45-3.67,5.95-3.94    c2.57-0.2,4.99,0.72,6.64,2.63l137.23,158.3c1.98,2.29,2.44,5.52,1.19,8.27C468.33,425.41,465.59,427.18,462.56,427.18z     M150.51,411.73h295.12L326.72,274.56l-46.94,84.49c-1.31,2.34-3.72,3.84-6.39,3.97c-2.71,0.26-5.22-1.13-6.73-3.34L228.7,304.5    L150.51,411.73z"/></g><g><circle class="st4" cx="339.43" cy="354" r="19.32"/><path d="M339.43,381.04c-14.91,0-27.05-12.13-27.05-27.05s12.13-27.05,27.05-27.05s27.05,12.13,27.05,27.05    S354.34,381.04,339.43,381.04z M339.43,342.41c-6.39,0-11.59,5.2-11.59,11.59s5.2,11.59,11.59,11.59s11.59-5.2,11.59-11.59    S345.82,342.41,339.43,342.41z"/></g></g></svg>