<?xml version="1.0" ?><!DOCTYPE svg  PUBLIC '-//W3C//DTD SVG 1.1//EN'  'http://www.w3.org/Graphics/SVG/1.1/DTD/svg11.dtd'><svg height="512px" style="enable-background:new 0 0 512 512;" version="1.1" viewBox="0 0 512 512" width="512px" xml:space="preserve" xmlns="http://www.w3.org/2000/svg" xmlns:xlink="http://www.w3.org/1999/xlink"><g id="_x31_59_x2C__Twitter_x2C__Image_x2C__Picture"><g id="XMLID_5057_"><g id="XMLID_6734_"><g><g><circle cx="150" cy="160" r="40" style="fill:#FCD884;"/></g><g><path d="M470,40v320L360,260l-90,90l-55-55L40,470V40H470z M190,160c0-22.09-17.91-40-40-40       s-40,17.91-40,40s17.91,40,40,40S190,182.09,190,160z" style="fill:#D7DEED;"/></g><g><polygon points="470,360 470,470 385,470 385,465 270,350 360,260      " style="fill:#70993F;"/></g><g><polygon points="385,465 385,470 40,470 215,295 270,350      " style="fill:#80AF52;"/></g></g><g><g><path d="M470,480H40c-5.523,0-10-4.478-10-10V40c0-5.523,4.477-10,10-10h430c5.522,0,10,4.477,10,10v430       C480,475.522,475.522,480,470,480z M50,460h410V50H50V460z"/></g><g><path d="M40,480c-2.559,0-5.119-0.977-7.071-2.929c-3.905-3.905-3.905-10.237,0-14.143l175-175       c3.905-3.904,10.237-3.904,14.143,0l170,170c3.905,3.905,3.905,10.237,0,14.143c-3.906,3.904-10.236,3.904-14.143,0       L215,309.143L47.071,477.071C45.119,479.023,42.559,480,40,480z"/></g><g><path d="M469.997,370c-2.4,0-4.808-0.858-6.724-2.601l-102.944-93.586l-83.258,83.258c-3.906,3.904-10.236,3.904-14.143,0       c-3.905-3.905-3.905-10.237,0-14.143l90-90c3.775-3.774,9.851-3.918,13.798-0.328l110,100       c4.087,3.715,4.388,10.04,0.673,14.126C475.426,368.897,472.716,370,469.997,370z"/></g><g><path d="M150,210c-27.57,0-50-22.43-50-50s22.43-50,50-50s50,22.43,50,50S177.57,210,150,210z M150,130       c-16.542,0-30,13.458-30,30s13.458,30,30,30s30-13.458,30-30S166.542,130,150,130z"/></g></g></g></g></g><g id="Layer_1"/></svg>