<?xml version="1.0" ?><svg viewBox="0 0 32 32" xmlns="http://www.w3.org/2000/svg"><defs><style>.cls-1{fill:#030303;}.cls-2{fill:none;}</style></defs><title/><g data-name="Layer 2" id="Layer_2"><g data-name="Layer 4" id="Layer_4"><path class="cls-1" d="M16,3A13,13,0,1,0,29,16,13,13,0,0,0,16,3Zm0,24A11,11,0,1,1,27,16,11,11,0,0,1,16,27Z"/><path class="cls-1" d="M22,15H17V10a1,1,0,0,0-2,0v5H10a1,1,0,0,0,0,2h5v5a1,1,0,0,0,2,0V17h5a1,1,0,0,0,0-2Z"/><rect class="cls-2" height="32" width="32"/></g></g></svg>